<svg xmlns="http://www.w3.org/2000/svg" width="15" height="15" viewBox="0 0 20 20">
  <metadata><?xpacket begin="﻿" id="W5M0MpCehiHzreSzNTczkc9d"?>
<x:xmpmeta xmlns:x="adobe:ns:meta/" x:xmptk="Adobe XMP Core 5.6-c142 79.160924, 2017/07/13-01:06:39        ">
   <rdf:RDF xmlns:rdf="http://www.w3.org/1999/02/22-rdf-syntax-ns#">
      <rdf:Description rdf:about=""/>
   </rdf:RDF>
</x:xmpmeta>
                                                                                                    
                                                                                                    
                                                                                                    
                                                                                                    
                                                                                                    
                                                                                                    
                                                                                                    
                                                                                                    
                                                                                                    
                                                                                                    
                                                                                                    
                                                                                                    
                                                                                                    
                                                                                                    
                                                                                                    
                                                                                                    
                                                                                                    
                                                                                                    
                                                                                                    
                                                                                                    
                           
<?xpacket end="w"?></metadata>
<defs>
    <style>
      .cls-1 {
        fill: #8d8d8d;
        fill-rule: evenodd;
      }
    </style>
  </defs>
  <path class="cls-1" d="M1365.9,6011.26a0.828,0.828,0,0,0-.39,1.11,8.243,8.243,0,0,1,.82,3.63,8.33,8.33,0,1,1-8.33-8.33,8.26,8.26,0,0,1,5.17,1.79,0.832,0.832,0,0,0,1.04-1.3A10,10,0,1,0,1368,6016a9.866,9.866,0,0,0-.99-4.35,0.828,0.828,0,0,0-1.11-.39h0Zm0,0-7.9-1.93a0.837,0.837,0,0,0-.83.84V6016a0.828,0.828,0,0,0,.83.83h4.17a0.83,0.83,0,0,0,0-1.66h-3.34v-5a0.837,0.837,0,0,0-.83-0.84h0Zm0,0" transform="translate(-1348 -6006)"/>
</svg>
